<svg width="130" height="130" viewBox="0 0 130 130" fill="none" xmlns="http://www.w3.org/2000/svg">
<circle cx="65" cy="65" r="65" fill="#D9D9D9"/>
<path d="M93.0264 82.575C91.6158 79.2338 89.5688 76.1988 86.9994 73.6392C84.4378 71.0722 81.4033 69.0255 78.0636 67.6122C78.0337 67.5972 78.0038 67.5897 77.9739 67.5748C82.6324 64.2098 85.6609 58.7287 85.6609 52.5446C85.6609 42.3002 77.3607 34 67.1163 34C56.8718 34 48.5716 42.3002 48.5716 52.5446C48.5716 58.7287 51.6001 64.2098 56.2587 67.5823C56.2288 67.5972 56.1988 67.6047 56.1689 67.6196C52.8189 69.0329 49.8129 71.0594 47.2331 73.6467C44.6661 76.2083 42.6194 79.2427 41.2061 82.5825C39.8177 85.8521 39.0688 89.3576 39.0002 92.9092C38.9982 92.989 39.0122 93.0684 39.0414 93.1427C39.0705 93.217 39.1143 93.2847 39.17 93.3419C39.2258 93.399 39.2924 93.4444 39.366 93.4754C39.4395 93.5064 39.5186 93.5224 39.5984 93.5223H44.085C44.414 93.5223 44.6757 93.2606 44.6832 92.9391C44.8328 87.1663 47.1509 81.7599 51.2486 77.6622C55.4885 73.4223 61.1192 71.0893 67.1163 71.0893C73.1134 71.0893 78.7441 73.4223 82.9839 77.6622C87.0817 81.7599 89.3997 87.1663 89.5493 92.9391C89.5568 93.2681 89.8185 93.5223 90.1475 93.5223H94.6341C94.714 93.5224 94.793 93.5064 94.8666 93.4754C94.9401 93.4444 95.0067 93.399 95.0625 93.3419C95.1182 93.2847 95.162 93.217 95.1912 93.1427C95.2203 93.0684 95.2343 92.989 95.2323 92.9092C95.1576 89.3348 94.4173 85.8577 93.0264 82.575ZM67.1163 65.4063C63.684 65.4063 60.4536 64.0677 58.0234 61.6375C55.5932 59.2073 54.2547 55.9769 54.2547 52.5446C54.2547 49.1124 55.5932 45.882 58.0234 43.4518C60.4536 41.0215 63.684 39.683 67.1163 39.683C70.5485 39.683 73.7789 41.0215 76.2091 43.4518C78.6394 45.882 79.9779 49.1124 79.9779 52.5446C79.9779 55.9769 78.6394 59.2073 76.2091 61.6375C73.7789 64.0677 70.5485 65.4063 67.1163 65.4063Z" fill="#666666"/>
</svg>
