<svg width="124" height="116" viewBox="0 0 124 116" fill="none" xmlns="http://www.w3.org/2000/svg">
<g clip-path="url(#clip0_32_79)">
<path d="M50 14.9681H69.9999C71.1037 14.9681 72.0001 15.8062 72.0001 16.8392V18.7104H76.0001V16.8392C76.0001 13.7447 73.3082 11.2261 69.9999 11.2261H50C48.8957 11.2261 47.9997 10.3879 47.9997 9.35497C47.9997 8.322 48.8957 7.48381 50 7.48381H60.0001C63.3081 7.48381 66.0003 4.96565 66.0003 1.87073V0.000366211H62.0003V1.87153C62.0003 2.9045 61.1043 3.74269 60.0001 3.74269H50C46.692 3.74269 43.9998 6.26085 43.9998 9.35577C43.9998 12.4503 46.6916 14.9681 50 14.9681Z" fill="white"/>
<path d="M114 97.2904V71.6769C115.262 69.8995 116 67.7721 116 65.4839L109.618 37.4197H95.9997V29.0002C95.9997 24.3583 91.9617 20.5808 86.9996 20.5808C85.1496 20.5808 83.4314 21.1085 81.9995 22.0065V20.5808H41.9996V37.4197H14.3816L8.04349 65.0911L7.99955 65.4839C7.99955 67.7721 8.73768 69.8995 9.99975 71.6769V97.2904H0V116H38.0001H40.0003H44.0003H79.9997H83.9997H85.9999H124V97.2904H114V97.2904ZM112 101.032H120V104.774H112V101.032ZM95.9997 42.0968V41.1612H106.382L111.526 63.6127H95.7339L93.3578 48.0499C94.9897 46.5256 95.9997 44.419 95.9997 42.0968ZM111.728 67.355C110.834 70.5749 107.718 72.9681 104 72.9681C100.282 72.9681 97.1777 70.5753 96.2838 67.355H111.728ZM81.9995 41.1616V37.4193V29.9354V28.9998C81.9999 26.4198 84.2416 24.3227 86.9996 24.3227C89.7576 24.3227 91.9997 26.4202 91.9997 29.0002V42.0972C91.9997 44.6772 89.7576 46.7747 86.9996 46.7747C84.2416 46.7747 81.9995 44.6772 81.9995 42.0972V41.1616ZM79.7318 47.0197C81.3697 49.1284 84.0078 50.5166 86.9996 50.5166C87.9216 50.5166 88.7937 50.3482 89.6296 50.1067L91.6933 63.6131H75.7915L74.2077 50.2695C76.4277 49.7977 78.3417 48.6211 79.7318 47.0197ZM91.7155 67.355C90.8217 70.5749 87.7177 72.9681 83.9997 72.9681C80.2817 72.9681 77.1778 70.5753 76.2839 67.355H91.7155ZM45.9996 24.3227H77.9999V29.0002V29.9354V37.4193V41.1612C77.9999 44.2557 75.3081 46.7743 71.9998 46.7743H51.9998C48.6919 46.7743 45.9996 44.2561 45.9996 41.1612V24.3227ZM52.2341 63.6131L53.7897 50.5162H70.2078L71.7638 63.6131H52.2341ZM71.7156 67.355C70.8217 70.5749 67.7177 72.9681 63.9998 72.9681H59.9998C56.2818 72.9681 53.1778 70.5753 52.284 67.355H71.7156ZM35.7362 41.1616H42.0001C42.0001 45.6088 45.3417 49.3248 49.794 50.2695L48.2102 63.6131H32.3084L35.7362 41.1616ZM47.7157 67.355C46.8218 70.5749 43.7178 72.9681 39.9999 72.9681C36.2819 72.9681 33.1779 70.5753 32.284 67.355H47.7157ZM17.6179 41.1616H31.694L28.2661 63.6131H12.474L17.6179 41.1616ZM27.7157 67.355C26.8219 70.5749 23.7179 72.9681 19.9999 72.9681C16.282 72.9681 13.166 70.5753 12.2717 67.355H27.7157ZM3.99999 101.032H12V104.774H3.99999V101.032ZM6.00019 112.258H3.99999V108.516H6.00019V112.258V112.258ZM18.0002 112.258H10.0002V108.516H18.0002V112.258ZM15.9999 104.774V101.032H23.9999V104.774H15.9999ZM30.0001 112.258H22.0001V108.516H30.0001V112.258ZM27.9999 104.774V101.032H35.9999V104.774H27.9999ZM36.0003 112.258H34.0001V108.516H36.0003V112.258ZM76.0002 112.258H47.9998V97.29C47.9998 90.07 54.2816 84.1931 62 84.1931C69.7184 84.1931 76.0002 90.0696 76.0002 97.29V112.258V112.258ZM84.0006 97.2904V112.258H79.9997V97.2904C79.9997 88.0049 71.9259 80.4516 61.9996 80.4516C52.0732 80.4516 43.9994 88.0045 43.9994 97.2904V112.258H39.9999V97.2904H14.0002V75.1905C15.7683 76.1505 17.8141 76.7097 20.0004 76.7097C24.1723 76.7097 27.8484 74.706 30.0005 71.6769C32.1526 74.708 35.8284 76.7097 40.0007 76.7097C44.1731 76.7097 47.8488 74.706 50.0009 71.6769C52.153 74.708 55.8287 76.7097 60.0011 76.7097H63.9998C68.1717 76.7097 71.8479 74.706 74 71.6769C76.1521 74.708 79.8278 76.7097 84.0001 76.7097C88.1725 76.7097 91.8482 74.706 94.0003 71.6769C96.1524 74.708 99.8281 76.7097 104 76.7097C106.186 76.7097 108.233 76.1501 110.001 75.1905V97.2904H84.0006V97.2904ZM108 101.032V104.774H99.9997V101.032H108V101.032ZM95.9997 101.032V104.774H87.9997V101.032H95.9997V101.032ZM89.9999 112.258H87.9997V108.516H89.9999V112.258ZM102 112.258H93.9999V108.516H102V112.258ZM114 112.258H106V108.516H114V112.258ZM120 112.258H118V108.516H120V112.258Z" fill="white"/>
<path d="M16 95.4193H42.0001V78.5804H16V95.4193ZM20 82.3228H38.0001V91.6778H20V82.3228Z" fill="white"/>
<path d="M81.9995 95.4193H108V78.5804H81.9995V95.4193ZM85.9995 82.3228H104V91.6778H85.9995V82.3228Z" fill="white"/>
</g>
<defs>
<clipPath id="clip0_32_79">
<rect width="124" height="116" fill="white"/>
</clipPath>
</defs>
</svg>
