<svg width="58" height="50" viewBox="0 0 58 50" fill="none" xmlns="http://www.w3.org/2000/svg">
<path d="M9.19998 36.2C12 36.2 14.3 33.9 14.3 31.1C14.3 28.3 12 26 9.19998 26C6.39998 26 4.09998 28.3 4.09998 31.1C4.09998 33.9 6.39998 36.2 9.19998 36.2ZM9.19998 28C10.9 28 12.3 29.4 12.3 31.1C12.3 32.8 10.9 34.2 9.19998 34.2C7.49998 34.2 6.09998 32.8 6.09998 31.1C6.09998 29.4 7.49998 28 9.19998 28Z" fill="white"/>
<path d="M11.3 36.8999H7.1C3.2 36.8999 0 40.0999 0 43.9999V49.7999H18.4V43.9999C18.4 40.0999 15.2 36.8999 11.3 36.8999ZM16.4 47.7999H2V43.9999C2 42.5999 2.6 41.2999 3.5 40.3999C4.4 39.4999 5.7 38.8999 7.1 38.8999H11.3C12.7 38.8999 14 39.4999 14.9 40.3999C15.8 41.2999 16.4 42.5999 16.4 43.9999V47.7999V47.7999Z" fill="white"/>
<path d="M43.7 31.1C43.7 33.9 45.9999 36.2 48.7999 36.2C51.5999 36.2 53.9 33.9 53.9 31.1C53.9 28.3 51.5999 26 48.7999 26C45.9999 26 43.7 28.3 43.7 31.1ZM48.7999 28C50.4999 28 51.9 29.4 51.9 31.1C51.9 32.8 50.4999 34.2 48.7999 34.2C47.0999 34.2 45.7 32.8 45.7 31.1C45.7 29.4 47.0999 28 48.7999 28Z" fill="white"/>
<path d="M50.9 36.8999H46.7C42.8 36.8999 39.6 40.0999 39.6 43.9999V49.7999H58V43.9999C58 40.0999 54.8 36.8999 50.9 36.8999ZM56 47.7999H41.6V43.9999C41.6 42.5999 42.2 41.2999 43.1 40.3999C44 39.4999 45.3 38.8999 46.7 38.8999H50.9C52.3 38.8999 53.6 39.4999 54.5 40.3999C55.4 41.2999 56 42.5999 56 43.9999V47.7999V47.7999Z" fill="white"/>
<path d="M23.9 31.1C23.9 33.9 26.2 36.2 29 36.2C31.8 36.2 34.1 33.9 34.1 31.1C34.1 28.3 31.8 26 29 26C26.2 26 23.9 28.3 23.9 31.1ZM29 28C30.7 28 32.1 29.4 32.1 31.1C32.1 32.8 30.7 34.2 29 34.2C27.3 34.2 25.9 32.8 25.9 31.1C25.9 29.4 27.3 28 29 28Z" fill="white"/>
<path d="M31.1 36.8999H26.9C23 36.8999 19.8 40.0999 19.8 43.9999V49.7999H38.2001V43.9999C38.2001 40.0999 35 36.8999 31.1 36.8999ZM36.2001 47.7999H21.8V43.9999C21.8 42.5999 22.4 41.2999 23.3 40.3999C24.2 39.4999 25.5 38.8999 26.9 38.8999H31.1C32.5 38.8999 33.8001 39.4999 34.7001 40.3999C35.6001 41.2999 36.2001 42.5999 36.2001 43.9999V47.7999Z" fill="white"/>
<path d="M19.1 10.4C21.9 10.4 24.2 8.09995 24.2 5.29995C24.2 2.49995 21.9 0.199951 19.1 0.199951C16.3 0.199951 14 2.49995 14 5.29995C14 8.09995 16.3 10.4 19.1 10.4ZM19.1 2.19995C20.8 2.19995 22.2 3.59995 22.2 5.29995C22.2 6.99995 20.8 8.39995 19.1 8.39995C17.4 8.39995 16 6.99995 16 5.29995C16 3.49995 17.4 2.19995 19.1 2.19995Z" fill="white"/>
<path d="M28.3 18.2C28.3 14.3 25.1 11.1 21.2 11.1H17C13.1 11.1 9.90002 14.3 9.90002 18.2V24H28.3V18.2V18.2ZM26.3 22H11.9V18.2C11.9 16.8 12.5 15.5 13.4 14.6C14.3 13.7 15.6 13.1 17 13.1H21.2C22.6 13.1 23.9 13.7 24.8 14.6C25.7 15.5 26.3 16.8 26.3 18.2V22Z" fill="white"/>
<path d="M38.9001 10.4C41.7001 10.4 44 8.09995 44 5.29995C44 2.49995 41.7001 0.199951 38.9001 0.199951C36.1001 0.199951 33.8 2.49995 33.8 5.29995C33.8 8.09995 36.1001 10.4 38.9001 10.4ZM38.9001 2.19995C40.6001 2.19995 42 3.59995 42 5.29995C42 6.99995 40.6001 8.39995 38.9001 8.39995C37.2001 8.39995 35.8 6.99995 35.8 5.29995C35.8 3.49995 37.2001 2.19995 38.9001 2.19995Z" fill="white"/>
<path d="M48.0999 18.2C48.0999 14.3 44.9 11.1 41 11.1H36.7999C32.8999 11.1 29.7 14.3 29.7 18.2V24H48.0999V18.2V18.2ZM46.0999 22H31.7V18.2C31.7 16.8 32.3 15.5 33.2 14.6C34.1 13.7 35.3999 13.1 36.7999 13.1H41C42.4 13.1 43.6999 13.7 44.5999 14.6C45.4999 15.5 46.0999 16.8 46.0999 18.2V22Z" fill="white"/>
</svg>
